# xmcd
#
# Track frame offsets:
#	150
#	5024
#	18959
#	29233
#	48305
#	70136
#	92823
#	112352
#	130501
#	144861
#	166612
#	194165
#
# Disc length: 2758 seconds
#
# Revision: 1
# Processed by: cddbd v1.5.1PL2 Copyright (c) Steve Scherf et al.
# Submitted via: audiograbber 1.83.01
#
DISCID=a50ac40c
DTITLE=Ray Charles - In Concert - Edmonton - Canada 1981_01_27
DYEAR=1981
DGENRE=Soul
TTITLE0=Introduction
TTITLE1=Riding Thumb
TTITLE2=Busted
TTITLE3=Georgia On My Mind
TTITLE4=Oh, What A Beautiful Morning
TTITLE5=Some Enchanted Evening
TTITLE6=Hit The Road, Jack
TTITLE7=I Can't Stop Loving You
TTITLE8=Take These Chains From My Heart
TTITLE9=I Can See Clearly Now
TTITLE10=What'd I Say
TTITLE11=America The Beautiful
EXTD=
EXTT0=
EXTT1=
EXTT2=
EXTT3=
EXTT4=
EXTT5=
EXTT6=
EXTT7=
EXTT8=
EXTT9=
EXTT10=
EXTT11=
PLAYORDER=
